<?xml version="1.0" encoding="iso-8859-1"?>
<!-- Generator: Adobe Illustrator 17.1.0, SVG Export Plug-In . SVG Version: 6.00 Build 0)  -->
<!DOCTYPE svg PUBLIC "-//W3C//DTD SVG 1.1//EN" "http://www.w3.org/Graphics/SVG/1.1/DTD/svg11.dtd">
<svg version="1.1" id="Capa_1" xmlns="http://www.w3.org/2000/svg" xmlns:xlink="http://www.w3.org/1999/xlink" x="0px" y="0px"
	 viewBox="0 0 482.61 482.61" style="enable-background:new 0 0 482.61 482.61;" xml:space="preserve">
<g>
	<path d="M264.411,363.858c-6.628,3.758-14.279,5.911-22.427,5.911c-8.232,0-15.955-2.199-22.63-6.028
		c-0.701-0.402-1.761,0.449-1.545,1.279c2.813,10.791,12.625,18.756,24.297,18.756c11.58,0,21.325-7.84,24.225-18.501
		C266.594,364.308,265.274,363.369,264.411,363.858z" fill='#88E0EF'/>
	<path d="M241.973,274.829c-24.448,0-44.338,19.89-44.338,44.338c0,24.447,19.89,44.337,44.338,44.337
		c24.447,0,44.337-19.89,44.337-44.337C286.31,294.719,266.42,274.829,241.973,274.829z" fill='#88E0EF'/>
	<path d="M479.395,110.159c-3.124-3.972-8.184-6.168-13.915-5.926l-67.626,2.739c-2.811,0.114-6.367,0.174-10.284,0.174
		c-7.003,0-14.165-0.187-19.159-0.5l-117.187-7.35c-0.076-0.005-0.148-0.003-0.223-0.007c-2.823-0.617-5.881-0.952-9.029-0.952
		c-3.197,0-6.3,0.346-9.16,0.982l-118.608,7.339c-4.957,0.307-12.071,0.49-19.032,0.49c-3.97,0-7.571-0.062-10.417-0.177
		l-67.625-2.739c-0.283-0.012-0.563-0.017-0.84-0.017c-5.339,0-10.105,2.166-13.075,5.942c-2.981,3.79-3.931,8.727-2.676,13.9
		c2.447,10.092,12.642,18.173,23.208,18.396l70.29,1.483c8.179,0.172,21.46,0.896,29.606,1.611l65.714,5.778l7.176,16.862
		c2.869,6.741,4.217,18.532,2.944,25.747l-7.798,44.202l-23.42,33.711c-3.454,4.972-7.522,13.408-9.262,19.206l-23.267,77.548
		c-1.267,4.222-0.703,8.379,1.549,11.404c2.014,2.707,5.226,4.26,8.813,4.26c0.174,0,0.351-0.004,0.53-0.011
		c6.838-0.28,14.125-5.763,16.95-12.753l27.174-67.251c1.911-4.729,6.026-12.177,8.986-16.33l14.488-20.271h55.502l14.489,20.271
		c2.96,4.153,7.076,11.629,8.986,16.358l27.174,67.237c2.824,6.99,10.111,12.466,16.951,12.746c0.178,0.007,0.355,0.007,0.529,0.007
		c3.586,0,6.799-1.554,8.813-4.26c2.251-3.026,2.816-7.185,1.549-11.406l-23.267-77.548c-1.74-5.798-5.808-14.235-9.262-19.207
		l-23.421-33.711l-7.798-44.201c-1.272-7.216,0.076-19.007,2.944-25.748l7.228-16.984l64.328-5.656
		c8.147-0.716,21.428-1.439,29.606-1.611l70.29-1.483c10.566-0.224,20.761-8.305,23.208-18.396
		C483.326,118.886,482.376,113.95,479.395,110.159z M284.447,244.551c1.298,7.619-3.752,14.102-11.221,14.102h-62.506
		c-7.469,0-12.519-6.483-11.221-14.102l8.46-49.787c0.114-0.668,0.2-1.381,0.274-2.112h67.493c0.072,0.686,0.155,1.356,0.262,1.987
		L284.447,244.551z M288.711,144.08l-9.686,23.573h-74.131l-9.66-23.542c-2.925-7.118,0.193-15.693,6.929-19.036l27.563-13.689
		c6.736-3.343,17.758-3.347,24.494-0.004l27.563,13.679C288.518,128.405,291.636,136.962,288.711,144.08z" fill='#88E0EF'/>
</g>
<g>
</g>
<g>
</g>
<g>
</g>
<g>
</g>
<g>
</g>
<g>
</g>
<g>
</g>
<g>
</g>
<g>
</g>
<g>
</g>
<g>
</g>
<g>
</g>
<g>
</g>
<g>
</g>
<g>
</g>
</svg>
